# xmcd
#
# Track frame offsets: 
#        150
#        21676
#        37011
#        56811
#        72802
#        86967
#        104434
#        122845
#        146284
#        167893
#
# Disc length: 2535 seconds
#
# Revision: 0
# Processed by: cddbd v1.5.2PL0 Copyright (c) Steve Scherf et al.
# Submitted via: ExactAudioCopy v1.0b3
#
DISCID=9609e50a
DTITLE=Matej Ptaszek - Live in palac Akropolis
DYEAR=2013
DGENRE=Blues
TTITLE0=Mean old frisco Blues
TTITLE1=Rollin and tumblin
TTITLE2=Little red rooster
TTITLE3=John Henry
TTITLE4=You are my sunshine
TTITLE5=Diggin my potatoes
TTITLE6=Good morning Blues
TTITLE7=I'm in the mood
TTITLE8=My babe
TTITLE9=Im your hootchie coochie man
EXTD=
EXTT0=
EXTT1=
EXTT2=
EXTT3=
EXTT4=
EXTT5=
EXTT6=
EXTT7=
EXTT8=
EXTT9=
PLAYORDER=
